<svg width="64" height="64" viewBox="0 0 64 64" fill="none" xmlns="http://www.w3.org/2000/svg">
<path d="M1.16231 59.2864C1.90202 60.0248 2.92483 60.4488 3.97009 60.4488H4.467H6.58137H60.0303C61.075 60.4488 62.0981 60.0248 62.8376 59.2856C63.5755 58.5469 64 57.5246 64 56.4794V23.6519H0V56.4794C0 57.5246 0.424509 58.5469 1.16231 59.2864ZM51.1144 26.3151H60.2748V34.4652H51.1144V26.3151ZM51.1144 36.7189H60.2748V44.8684H51.1144V36.7189ZM39.2653 26.3151H48.4281V34.4652H39.2653V26.3151ZM39.2653 36.7189H48.4281V44.8684H39.2653V36.7189ZM39.2653 47.1224H48.4281V55.2718H39.2653V47.1224ZM27.4188 26.3151H36.5812V34.4652H27.4188V26.3151ZM27.4188 36.7189H36.5812V44.8684H27.4188V36.7189ZM27.4188 47.1224H36.5812V55.2718H27.4188V47.1224ZM15.5721 26.3151H24.7347V34.4652H15.5721V26.3151ZM15.5721 36.7189H24.7347V44.8684H15.5721V36.7189ZM15.5721 47.1224H24.7347V55.2718H15.5721V47.1224ZM3.72546 36.7189H12.887V44.8684H3.72546V36.7189ZM3.72546 47.1224H12.887V55.2718H3.72546V47.1224Z" fill="#D1FAE5"/>
<path d="M63.9999 19.8684H0V22.2185H63.9999V19.8684Z" fill="#6EE7B7"/>
<path d="M6.58137 8.57104H4.467H3.97009C2.92492 8.57104 1.90202 8.99415 1.16231 9.73317C0.424422 10.4724 0 11.4944 0 12.5388V17.1512H63.9999V12.5388C63.9999 11.4944 63.5754 10.4724 62.8365 9.73317C62.0981 8.99415 61.075 8.57104 60.0303 8.57104H53.2972V13.7671C53.2972 14.7364 52.5108 15.5227 51.5408 15.5227H47.84C46.8699 15.5227 46.0853 14.7364 46.0853 13.7671V8.57104H17.9168V13.7671C17.9168 14.7364 17.1298 15.5227 16.1615 15.5227H12.4594C11.489 15.5227 10.7048 14.7364 10.7048 13.7671V8.57104H6.58137Z" fill="#6EE7B7"/>
<path d="M63.9999 17.1514H0V19.8685H63.9999V17.1514Z" fill="#10B981"/>
<path d="M12.4594 13.7671H16.1615V8.57109V4H12.4594V8.57109V13.7671Z" fill="#D1FAE5"/>
<path d="M47.84 13.7671H51.5408V8.57109V4H47.84V8.57109V13.7671Z" fill="#D1FAE5"/>
<path d="M24.7347 26.3149H15.5721V34.465H24.7347V26.3149Z" fill="#10B981"/>
<path d="M36.5812 26.3149H27.4188V34.465H36.5812V26.3149Z" fill="#10B981"/>
<path d="M48.4281 26.3149H39.2653V34.465H48.4281V26.3149Z" fill="#10B981"/>
<path d="M60.2748 26.3149H51.1144V34.465H60.2748V26.3149Z" fill="#10B981"/>
<path d="M12.887 36.7188H3.72546V44.8683H12.887V36.7188Z" fill="#10B981"/>
<path d="M24.7347 36.7188H15.5721V44.8683H24.7347V36.7188Z" fill="#10B981"/>
<path d="M36.5812 36.7188H27.4188V44.8683H36.5812V36.7188Z" fill="#10B981"/>
<path d="M48.4281 36.7188H39.2653V44.8683H48.4281V36.7188Z" fill="#6EE7B7"/>
<path d="M60.2748 36.7188H51.1144V44.8683H60.2748V36.7188Z" fill="#10B981"/>
<path d="M12.887 47.1223H3.72546V55.2717H12.887V47.1223Z" fill="#10B981"/>
<path d="M24.7347 47.1223H15.5721V55.2717H24.7347V47.1223Z" fill="#6EE7B7"/>
<path d="M36.5812 47.1223H27.4188V55.2717H36.5812V47.1223Z" fill="#10B981"/>
<path d="M48.4281 47.1223H39.2653V55.2717H48.4281V47.1223Z" fill="#10B981"/>
</svg>
